<svg xmlns="http://www.w3.org/2000/svg" xmlns:xlink="http://www.w3.org/1999/xlink" width="1367" height="330" viewBox="0 0 1367 330">
  <defs>
    <clipPath id="clip-path">
      <rect id="Rectangle_1615" data-name="Rectangle 1615" width="1367" height="330" transform="translate(-9613 8614)" fill="#2680eb"/>
    </clipPath>
  </defs>
  <g id="Mask_Group_22" data-name="Mask Group 22" transform="translate(9613 -8614)" clip-path="url(#clip-path)">
    <g id="Group_6746" data-name="Group 6746" transform="translate(20)">
      <rect id="Rectangle_1614" data-name="Rectangle 1614" width="1367" height="330" transform="translate(-9631.492 8614)" fill="#2680eb"/>
      <g id="Group_6745" data-name="Group 6745" transform="translate(-9630.492 8525)">
        <g id="Group_6262" data-name="Group 6262" transform="translate(609 -627)">
          <g id="Ellipse_390" data-name="Ellipse 390" transform="translate(571 794)" fill="none" stroke="#e9edf4" stroke-width="1">
            <circle cx="177.5" cy="177.5" r="177.5" stroke="none"/>
            <circle cx="177.5" cy="177.5" r="177" fill="none"/>
          </g>
          <g id="Ellipse_391" data-name="Ellipse 391" transform="translate(590 813)" fill="none" stroke="#e9edf4" stroke-width="1">
            <circle cx="158.5" cy="158.5" r="158.5" stroke="none"/>
            <circle cx="158.5" cy="158.5" r="158" fill="none"/>
          </g>
          <g id="Ellipse_392" data-name="Ellipse 392" transform="translate(610 833)" fill="none" stroke="#e9edf4" stroke-width="1">
            <circle cx="138.5" cy="138.5" r="138.5" stroke="none"/>
            <circle cx="138.5" cy="138.5" r="138" fill="none"/>
          </g>
          <g id="Ellipse_393" data-name="Ellipse 393" transform="translate(630 853)" fill="none" stroke="#e9edf4" stroke-width="1">
            <circle cx="118.5" cy="118.5" r="118.5" stroke="none"/>
            <circle cx="118.5" cy="118.5" r="118" fill="none"/>
          </g>
          <g id="Ellipse_394" data-name="Ellipse 394" transform="translate(649 872)" fill="none" stroke="#e9edf4" stroke-width="1">
            <circle cx="99.5" cy="99.5" r="99.5" stroke="none"/>
            <circle cx="99.5" cy="99.5" r="99" fill="none"/>
          </g>
          <g id="Ellipse_395" data-name="Ellipse 395" transform="translate(668 891)" fill="none" stroke="#e9edf4" stroke-width="1">
            <circle cx="80.5" cy="80.5" r="80.5" stroke="none"/>
            <circle cx="80.5" cy="80.5" r="80" fill="none"/>
          </g>
          <g id="Ellipse_396" data-name="Ellipse 396" transform="translate(686 909)" fill="none" stroke="#e9edf4" stroke-width="1">
            <circle cx="62.5" cy="62.5" r="62.5" stroke="none"/>
            <circle cx="62.5" cy="62.5" r="62" fill="none"/>
          </g>
          <g id="Ellipse_397" data-name="Ellipse 397" transform="translate(705 928)" fill="none" stroke="#e9edf4" stroke-width="1">
            <circle cx="43.5" cy="43.5" r="43.5" stroke="none"/>
            <circle cx="43.5" cy="43.5" r="43" fill="none"/>
          </g>
          <g id="Ellipse_398" data-name="Ellipse 398" transform="translate(720 943)" fill="none" stroke="#e9edf4" stroke-width="1">
            <circle cx="28.5" cy="28.5" r="28.5" stroke="none"/>
            <circle cx="28.5" cy="28.5" r="28" fill="none"/>
          </g>
          <g id="Ellipse_399" data-name="Ellipse 399" transform="translate(734 957)" fill="none" stroke="#e9edf4" stroke-width="1">
            <circle cx="14.5" cy="14.5" r="14.5" stroke="none"/>
            <circle cx="14.5" cy="14.5" r="14" fill="none"/>
          </g>
        </g>
        <path id="Path_6556" data-name="Path 6556" d="M-17177.508,9795.665c431.344,0,383.316-346.981,383.316-346.981l-381.486-6.961S-17177.508,9833.192-17177.508,9795.665Z" transform="translate(17175 -9445)" fill="#06d69b"/>
        <circle id="Ellipse_400" data-name="Ellipse 400" cx="90.5" cy="90.5" r="90.5" transform="translate(1147 154)" fill="#ffcd20"/>
      </g>
    </g>
  </g>
</svg>
