<svg xmlns="http://www.w3.org/2000/svg" width="1920" height="498.026" viewBox="0 0 1920 498.026">
  <g id="Group_6748" data-name="Group 6748" transform="translate(18808 -13449)">
    <path id="Intersection_9" data-name="Intersection 9" d="M.524,390.19C.234,272.036,0,150.114,0,61.506V60.46c384.093-144.572,568.409,5.582,1096.189,83.083S1920,44.427,1920,44.427l-1.469,345.763Z" transform="translate(-18808 13556.835)" fill="#e9f2fd"/>
    <g id="Group_6747" data-name="Group 6747" transform="translate(-17757.236 13449)">
      <g id="Ellipse_390" data-name="Ellipse 390" transform="translate(0 0)" fill="none" stroke="#e9edf4" stroke-width="1">
        <circle cx="249.013" cy="249.013" r="249.013" stroke="none"/>
        <circle cx="249.013" cy="249.013" r="248.513" fill="none"/>
      </g>
      <g id="Ellipse_391" data-name="Ellipse 391" transform="translate(26.655 26.655)" fill="none" stroke="#e9edf4" stroke-width="1">
        <circle cx="222.358" cy="222.358" r="222.358" stroke="none"/>
        <circle cx="222.358" cy="222.358" r="221.858" fill="none"/>
      </g>
      <g id="Ellipse_392" data-name="Ellipse 392" transform="translate(54.713 54.713)" fill="none" stroke="#e9edf4" stroke-width="1">
        <circle cx="194.3" cy="194.3" r="194.3" stroke="none"/>
        <circle cx="194.3" cy="194.3" r="193.8" fill="none"/>
      </g>
      <g id="Ellipse_393" data-name="Ellipse 393" transform="translate(82.771 82.771)" fill="none" stroke="#e9edf4" stroke-width="1">
        <circle cx="166.242" cy="166.242" r="166.242" stroke="none"/>
        <circle cx="166.242" cy="166.242" r="165.742" fill="none"/>
      </g>
      <g id="Ellipse_394" data-name="Ellipse 394" transform="translate(109.425 109.425)" fill="none" stroke="#e9edf4" stroke-width="1">
        <circle cx="139.588" cy="139.588" r="139.588" stroke="none"/>
        <circle cx="139.588" cy="139.588" r="139.088" fill="none"/>
      </g>
      <g id="Ellipse_395" data-name="Ellipse 395" transform="translate(136.08 136.08)" fill="none" stroke="#e9edf4" stroke-width="1">
        <circle cx="112.933" cy="112.933" r="112.933" stroke="none"/>
        <circle cx="112.933" cy="112.933" r="112.433" fill="none"/>
      </g>
      <g id="Ellipse_396" data-name="Ellipse 396" transform="translate(161.332 161.332)" fill="none" stroke="#e9edf4" stroke-width="1">
        <circle cx="87.681" cy="87.681" r="87.681" stroke="none"/>
        <circle cx="87.681" cy="87.681" r="87.181" fill="none"/>
      </g>
      <g id="Ellipse_397" data-name="Ellipse 397" transform="translate(187.987 187.987)" fill="none" stroke="#e9edf4" stroke-width="1">
        <circle cx="61.026" cy="61.026" r="61.026" stroke="none"/>
        <circle cx="61.026" cy="61.026" r="60.526" fill="none"/>
      </g>
      <g id="Ellipse_398" data-name="Ellipse 398" transform="translate(209.031 209.031)" fill="none" stroke="#e9edf4" stroke-width="1">
        <circle cx="39.982" cy="39.982" r="39.982" stroke="none"/>
        <circle cx="39.982" cy="39.982" r="39.482" fill="none"/>
      </g>
      <g id="Ellipse_399" data-name="Ellipse 399" transform="translate(228.671 228.671)" fill="none" stroke="#e9edf4" stroke-width="1">
        <circle cx="20.342" cy="20.342" r="20.342" stroke="none"/>
        <circle cx="20.342" cy="20.342" r="19.842" fill="none"/>
      </g>
    </g>
  </g>
</svg>
