<svg xmlns="http://www.w3.org/2000/svg" width="55.768" height="55.85" viewBox="0 0 55.768 55.85">
  <g id="LMS_LOGO" data-name="LMS LOGO" transform="translate(-169 -63.64)">
    <path id="Path_59" data-name="Path 59" d="M25.132,33.728c-.075.063-.132.106-.183.157-1.5,1.5-3.012,2.991-4.505,4.5a.755.755,0,0,0-.176.484c-.013,1.509.009,3.018-.012,4.526a2.381,2.381,0,0,1-3.617,2.076,2.187,2.187,0,0,1-1.143-1.9c-.025-2.061-.019-4.122-.005-6.182a2.368,2.368,0,0,1,.817-1.674q6.226-6.186,12.445-12.379,5.074-5.049,10.145-10.1a2.4,2.4,0,0,1,2.267-.759,2.391,2.391,0,0,1,1.285,3.985c-.614.651-1.263,1.27-1.9,1.9L28.812,30.038c-.086.085-.166.176-.2.217L43.524,45.307c.111-.1.2-.16.268-.236a26.8,26.8,0,0,0,7.062-13.377,20.7,20.7,0,0,0-.94-10.973A24.377,24.377,0,0,0,40.93,8.553,21.437,21.437,0,0,0,30.155,4.691,23.8,23.8,0,0,0,18.863,6.285,22.36,22.36,0,0,0,7.332,17.1,22.873,22.873,0,0,0,4.617,29.221,23.673,23.673,0,0,0,7.842,39.633,22.06,22.06,0,0,0,20.259,50.059a23.367,23.367,0,0,0,15.763-.228A2.279,2.279,0,0,1,37.7,54.07a21.183,21.183,0,0,1-4.592,1.3,28.18,28.18,0,0,1-16.331-1.756A27.1,27.1,0,0,1,3.218,40.669a26.735,26.735,0,0,1-3.2-13.415A28.574,28.574,0,0,1,7.414,8.976,25.961,25.961,0,0,1,23.5.34,28.155,28.155,0,0,1,37.591,1.706a26.567,26.567,0,0,1,12.85,10.073A29.422,29.422,0,0,1,55.5,24.433,25.276,25.276,0,0,1,53.922,37.5a31.942,31.942,0,0,1-7.78,11.65,14.713,14.713,0,0,1-1.3,1.086,2.424,2.424,0,0,1-3.336-.2c-.179-.168-.349-.345-.523-.518L25.429,34.008C25.335,33.915,25.237,33.827,25.132,33.728Z" transform="translate(168.999 63.64)" fill="#2680eb"/>
    <path id="Path_60" data-name="Path 60" d="M159.408,112.361c0,2.466.01,4.931,0,7.4a2.378,2.378,0,0,1-3.3,2.266,2.267,2.267,0,0,1-1.471-2.144c-.026-.747-.007-1.5-.007-2.245q0-6.311,0-12.623a2.389,2.389,0,1,1,4.774-.049C159.418,107.43,159.408,109.9,159.408,112.361Z" transform="translate(29.85 -28.601)" fill="#2680eb"/>
    <path id="Path_61" data-name="Path 61" d="M489.438,26.783a2.335,2.335,0,1,1-2.3-2.343A2.334,2.334,0,0,1,489.438,26.783Z" transform="translate(-267.258 41.646)" fill="#2680eb"/>
  </g>
</svg>
