<svg xmlns="http://www.w3.org/2000/svg" xmlns:xlink="http://www.w3.org/1999/xlink" width="76" height="70" viewBox="0 0 76 70">
  <defs>
    <clipPath id="clip-path">
      <rect id="Rectangle_1636" data-name="Rectangle 1636" width="76" height="70" transform="translate(-13992 8812)" fill="none" stroke="#707070" stroke-width="1"/>
    </clipPath>
  </defs>
  <g id="Mask_Group_30" data-name="Mask Group 30" transform="translate(13992 -8812)" clip-path="url(#clip-path)">
    <g id="Group_6836" data-name="Group 6836">
      <g id="Group_6835" data-name="Group 6835">
        <g id="Group_6829" data-name="Group 6829" transform="translate(454.065 13.76)">
          <g id="Group_6826" data-name="Group 6826" transform="translate(-14436 8809.085)">
            <circle id="Ellipse_495" data-name="Ellipse 495" cx="12.607" cy="12.607" r="12.607" transform="translate(37.655 28.012)" fill="#06d69b" opacity="0.5"/>
            <g id="chat" transform="translate(-2.066 -2.844)">
              <g id="Group_6822" data-name="Group 6822" transform="translate(0 0)">
                <path id="Path_7397" data-name="Path 7397" d="M101.279,161.457a.884.884,0,0,0-.884-.884H75.764a.884.884,0,1,0,0,1.769h24.631A.884.884,0,0,0,101.279,161.457Z" transform="translate(-66.05 -144.478)"/>
                <path id="Path_7398" data-name="Path 7398" d="M96.227,229.5H75.764a.884.884,0,1,0,0,1.769H96.227a.884.884,0,0,0,0-1.769Z" transform="translate(-66.05 -205.273)"/>
                <path id="Path_7399" data-name="Path 7399" d="M96.227,298.419H75.764a.884.884,0,0,0,0,1.769H96.227a.884.884,0,0,0,0-1.769Z" transform="translate(-66.05 -266.069)"/>
                <path id="Path_7400" data-name="Path 7400" d="M314.3,46.587a12.518,12.518,0,0,1-4.68-9.788V35.75a7.719,7.719,0,0,0-4.052-6.787V27.749a3.66,3.66,0,0,0-7.319,0v1.215a7.718,7.718,0,0,0-4.052,6.787V36.8a12.518,12.518,0,0,1-4.68,9.788,2.048,2.048,0,0,0,1.279,3.648h5.654a5.744,5.744,0,0,0,10.919,0h5.654a2.048,2.048,0,0,0,1.279-3.648ZM300.016,27.749a1.891,1.891,0,1,1,3.781,0v.525a7.714,7.714,0,0,0-3.781,0Zm1.891,24.676a3.977,3.977,0,0,1-3.552-2.19h7.1A3.976,3.976,0,0,1,301.906,52.425Zm11.113-3.959H290.793a.279.279,0,0,1-.169-.5A14.279,14.279,0,0,0,295.963,36.8V35.75a5.943,5.943,0,0,1,11.886,0V36.8a14.279,14.279,0,0,0,5.339,11.165A.279.279,0,0,1,313.02,48.466Z" transform="translate(-254.693 -24.089)"/>
                <path id="Path_7401" data-name="Path 7401" d="M52.547,98.582a.884.884,0,0,0-.884.884v7.569a5.314,5.314,0,0,1-5.308,5.308H19.532a2.88,2.88,0,0,0-1.991.794L7.97,122.225l1.41-7.827a1.744,1.744,0,0,0-1.716-2.053H7.077a5.314,5.314,0,0,1-5.308-5.308V82.863a5.314,5.314,0,0,1,5.308-5.308H37.83a.884.884,0,0,0,0-1.769H7.077A7.085,7.085,0,0,0,0,82.863v24.173a7.085,7.085,0,0,0,7.077,7.077h.556l-1.52,8.443a1.554,1.554,0,0,0,2.6,1.4l10.047-9.537a1.118,1.118,0,0,1,.773-.308H46.354a7.085,7.085,0,0,0,7.077-7.077V99.467A.885.885,0,0,0,52.547,98.582Z" transform="translate(0 -69.69)"/>
              </g>
            </g>
          </g>
        </g>
      </g>
    </g>
  </g>
</svg>
