<svg xmlns="http://www.w3.org/2000/svg" xmlns:xlink="http://www.w3.org/1999/xlink" width="76" height="70" viewBox="0 0 76 70">
  <defs>
    <clipPath id="clip-path">
      <rect id="Rectangle_1634" data-name="Rectangle 1634" width="76" height="70" transform="translate(-14172 8812)" fill="none" stroke="#707070" stroke-width="1"/>
    </clipPath>
  </defs>
  <g id="Mask_Group_28" data-name="Mask Group 28" transform="translate(14172 -8812)" clip-path="url(#clip-path)">
    <g id="Group_6832" data-name="Group 6832">
      <path id="Icon_ionic-ios-star" data-name="Icon ionic-ios-star" d="M27.509,9.191H18.12L15.267.677a1.034,1.034,0,0,0-1.94,0L10.474,9.191H1.021A1.024,1.024,0,0,0,0,10.212a.75.75,0,0,0,.019.172.981.981,0,0,0,.428.721l7.716,5.438L5.2,25.153A1.024,1.024,0,0,0,5.553,26.3a.988.988,0,0,0,.574.249,1.251,1.251,0,0,0,.638-.23L14.3,20.954l7.531,5.368a1.2,1.2,0,0,0,.638.23.917.917,0,0,0,.568-.249,1.012,1.012,0,0,0,.351-1.149l-2.961-8.61,7.653-5.489.185-.16a1.071,1.071,0,0,0,.332-.683A1.081,1.081,0,0,0,27.509,9.191Z" transform="matrix(0.891, 0.454, -0.454, 0.891, -14118.892, 8808)" fill="#3b8beb" opacity="0.5"/>
      <g id="sticky-note" transform="translate(-14158 8820)">
        <path id="Path_7249" data-name="Path 7249" d="M90.833,18.729a4.2,4.2,0,0,0,4.2-4.2V.789a.789.789,0,1,0-1.578,0V6.447h-.989V2.913a2.913,2.913,0,0,0-5.825,0v11.62A4.2,4.2,0,0,0,90.833,18.729Zm2.619-4.2a2.619,2.619,0,1,1-5.237,0V8.024h5.237v6.509ZM89.55,1.578a1.337,1.337,0,0,1,1.335,1.335V6.447H88.214V2.913A1.337,1.337,0,0,1,89.55,1.578Z" transform="translate(-80.357)" stroke="#000" stroke-width="0.15"/>
        <path id="Path_7250" data-name="Path 7250" d="M84.294,396.471H98.187a.789.789,0,1,0,0-1.578H84.294a.789.789,0,1,0,0,1.578Z" transform="translate(-77.555 -353.363)" stroke="#000" stroke-width="0.15"/>
        <path id="Path_7251" data-name="Path 7251" d="M84.294,334.758H119a.789.789,0,1,0,0-1.578h-34.7a.789.789,0,1,0,0,1.578Z" transform="translate(-77.555 -298.14)" stroke="#000" stroke-width="0.15"/>
        <path id="Path_7252" data-name="Path 7252" d="M84.294,271.043H119a.789.789,0,1,0,0-1.578h-34.7a.789.789,0,1,0,0,1.578Z" transform="translate(-77.555 -241.126)" stroke="#000" stroke-width="0.15"/>
        <path id="Path_7253" data-name="Path 7253" d="M84.294,207.329H119a.789.789,0,0,0,0-1.578h-34.7a.789.789,0,1,0,0,1.578Z" transform="translate(-77.555 -184.113)" stroke="#000" stroke-width="0.15"/>
        <path id="Path_7254" data-name="Path 7254" d="M71.041,61.3H44.48a.789.789,0,1,0,0,1.578H71.041a2.494,2.494,0,0,1,2.491,2.491V94.323h-9.6a3.2,3.2,0,0,0-3.194,3.194v9.6H31a2.494,2.494,0,0,1-2.491-2.491V65.369A2.487,2.487,0,0,1,31,62.877.789.789,0,1,0,31,61.3a4.065,4.065,0,0,0-4.069,4.069v39.262A4.073,4.073,0,0,0,31,108.7H61.522a.789.789,0,0,0,.558-.231l12.8-12.8a.789.789,0,0,0,.231-.558V65.368A4.073,4.073,0,0,0,71.041,61.3ZM63.928,95.9h8.489L62.311,106.006V97.518A1.619,1.619,0,0,1,63.928,95.9Z" transform="translate(-26.927 -54.853)" stroke="#000" stroke-width="0.15"/>
      </g>
    </g>
  </g>
</svg>
