<svg xmlns="http://www.w3.org/2000/svg" xmlns:xlink="http://www.w3.org/1999/xlink" width="76" height="70" viewBox="0 0 76 70">
  <defs>
    <clipPath id="clip-path">
      <rect id="Rectangle_1635" data-name="Rectangle 1635" width="76" height="70" transform="translate(-14083 8812)" fill="none" stroke="#707070" stroke-width="1"/>
    </clipPath>
  </defs>
  <g id="Mask_Group_29" data-name="Mask Group 29" transform="translate(14083 -8812)" clip-path="url(#clip-path)">
    <g id="Group_6834" data-name="Group 6834">
      <g id="Group_6833" data-name="Group 6833">
        <g id="Group_6828" data-name="Group 6828" transform="translate(574.714 16.405)">
          <path id="Icon_awesome-heart" data-name="Icon awesome-heart" d="M22.848,3.762a6.759,6.759,0,0,0-9.222.672l-.974,1-.974-1a6.758,6.758,0,0,0-9.222-.672,7.1,7.1,0,0,0-.489,10.275l9.563,9.875a1.549,1.549,0,0,0,2.239,0l9.563-9.875a7.092,7.092,0,0,0-.484-10.275Z" transform="translate(-14656.162 8800.387)" fill="#f95850" opacity="0.4"/>
          <g id="live-streaming_1_" data-name="live-streaming (1)" transform="translate(-14653.354 8805.864)">
            <path id="Path_7405" data-name="Path 7405" d="M64.373,174a2.216,2.216,0,0,0-1.111.321L52.434,180.57v-6.109a2.263,2.263,0,0,0-2.26-2.26H14.737A6.091,6.091,0,0,0,4.03,176.18V184H1.783a1.782,1.782,0,0,0-1.774,1.954,10.177,10.177,0,0,0,9.148,9.132v4.457H3.28a2.263,2.263,0,0,0-2.26,2.26v1.811a2.263,2.263,0,0,0,2.26,2.26H14.558a.969.969,0,0,0,0-1.937H3.28a.327.327,0,0,1-.323-.323V201.8a.327.327,0,0,1,.323-.323H16.972a.327.327,0,0,1,.323.323v1.811a.327.327,0,0,1-.323.323H14.466a.969.969,0,1,0,0,1.937h2.506a2.261,2.261,0,0,0,2.253-2.116h30.95a2.263,2.263,0,0,0,2.26-2.26v-6.11l10.829,6.252a2.215,2.215,0,0,0,1.11.321h0a1.661,1.661,0,0,0,1.321-.626,2.121,2.121,0,0,0,.431-1.347V175.971A1.791,1.791,0,0,0,64.373,174ZM5.968,176.18a4.158,4.158,0,0,1,8.316,0v5.46H5.968Zm0,7.4h8.316v1.391a4.158,4.158,0,1,1-8.316,0v-1.391Zm-1.385,7.465a8.21,8.21,0,0,1-2.627-5.105H4.108a6.095,6.095,0,0,0,12.035,0H18.3a8.223,8.223,0,0,1-13.713,5.105ZM50.5,201.5a.327.327,0,0,1-.323.323H19.232V201.8a2.263,2.263,0,0,0-2.26-2.26H11.094v-4.457a10.177,10.177,0,0,0,9.148-9.132A1.782,1.782,0,0,0,18.468,184H16.221v-7.82a6.068,6.068,0,0,0-.353-2.042H50.174a.327.327,0,0,1,.323.323Zm13.691-1.56L59.6,197.287v-4.1a.969.969,0,0,0-1.937,0v2.977l-5.224-3.016V182.807l5.224-3.016v8.88a.969.969,0,0,0,1.937,0v-10l4.593-2.652Z" transform="translate(-0.001 -156.487)"/>
            <path id="Path_7406" data-name="Path 7406" d="M203.191,249.742l-11.827-6.757a1.959,1.959,0,0,0-.975-.277,1.633,1.633,0,0,0-1.6,1.769v13.494a1.633,1.633,0,0,0,1.6,1.769,1.959,1.959,0,0,0,.976-.277l11.827-6.757a1.63,1.63,0,0,0,0-2.963Zm-12.461,7.851V244.854l11.149,6.369Z" transform="translate(-164.411 -219.731)"/>
            <path id="Path_7407" data-name="Path 7407" d="M64.855,204.112H62.414a.969.969,0,0,0,0,1.937h2.441a.969.969,0,0,0,0-1.937Z" transform="translate(-53.51 -186.119)"/>
            <path id="Path_7408" data-name="Path 7408" d="M64.855,231.835H62.414a.969.969,0,1,0,0,1.937h2.441a.969.969,0,0,0,0-1.937Z" transform="translate(-53.51 -210.262)"/>
            <path id="Path_7409" data-name="Path 7409" d="M235.016,153.894a3.893,3.893,0,0,0-2.856,1.257.969.969,0,1,0,1.426,1.312,1.936,1.936,0,0,1,2.861,0,.969.969,0,0,0,1.425-1.312A3.893,3.893,0,0,0,235.016,153.894Z" transform="translate(-201.954 -142.387)"/>
            <path id="Path_7410" data-name="Path 7410" d="M220.236,128a.969.969,0,1,0,1.425-1.312,7.707,7.707,0,0,0-11.358,0A.969.969,0,1,0,211.729,128a5.77,5.77,0,0,1,8.507,0Z" transform="translate(-182.92 -116.524)"/>
            <path id="Path_7411" data-name="Path 7411" d="M198.13,96.5a.969.969,0,1,0,.235-1.923,11.548,11.548,0,0,0-9.91,3.652.969.969,0,1,0,1.425,1.312A9.613,9.613,0,0,1,198.13,96.5Z" transform="translate(-163.894 -90.659)"/>
            <path id="Path_7412" data-name="Path 7412" d="M293.989,110.182a.969.969,0,0,0,1.426-1.312,11.641,11.641,0,0,0-2.437-2.014.969.969,0,0,0-1.02,1.647A9.691,9.691,0,0,1,293.989,110.182Z" transform="translate(-253.851 -101.297)"/>
            <path id="Path_7413" data-name="Path 7413" d="M167.314,71.4a.966.966,0,0,0,.713-.313,13.431,13.431,0,0,1,19.795,0,.969.969,0,1,0,1.425-1.312,15.368,15.368,0,0,0-22.646,0,.969.969,0,0,0,.713,1.625Z" transform="translate(-144.862 -64.795)"/>
          </g>
        </g>
      </g>
    </g>
  </g>
</svg>
