<svg xmlns="http://www.w3.org/2000/svg" width="74.038" height="59.992" viewBox="0 0 74.038 59.992">
  <g id="Group_6741" data-name="Group 6741" transform="translate(-826 -376.199)">
    <g id="exam-2" transform="translate(826 376.199)">
      <path id="Path_7312" data-name="Path 7312" d="M160.759,86.619a.879.879,0,0,0-1.243,0l-2.14,2.14-1.215-1.215a.879.879,0,0,0-1.243,1.243l1.837,1.837a.879.879,0,0,0,1.243,0l2.762-2.762a.879.879,0,0,0,0-1.243Z" transform="translate(-136.539 -76.242)"/>
      <path id="Path_7313" data-name="Path 7313" d="M160.759,154.266a.879.879,0,0,0-1.243,0l-2.14,2.14-1.215-1.215a.879.879,0,0,0-1.243,1.243l1.837,1.837a.879.879,0,0,0,1.243,0l2.762-2.762A.879.879,0,0,0,160.759,154.266Z" transform="translate(-136.539 -135.963)"/>
      <path id="Path_7314" data-name="Path 7314" d="M160.759,223.287a.879.879,0,0,0-1.243,0l-2.14,2.14-1.215-1.215a.879.879,0,0,0-1.243,1.243l1.837,1.837a.879.879,0,0,0,1.243,0l2.762-2.762A.879.879,0,0,0,160.759,223.287Z" transform="translate(-136.539 -196.897)"/>
      <path id="Path_7315" data-name="Path 7315" d="M4.044,59.992H55.95a4.063,4.063,0,0,0,4.043-4.074V53.55a1.566,1.566,0,0,0-1.561-1.567h-3a4.95,4.95,0,0,0,1.149-3.154V36.193a.879.879,0,0,0-1.758,0V48.829a3.234,3.234,0,0,1-2.636,3.154H7.81a3.233,3.233,0,0,1-2.636-3.154V18.195A3.209,3.209,0,0,1,8.38,14.989h4.745v1.884H8.7a1.613,1.613,0,0,0-1.611,1.612V48.493A1.613,1.613,0,0,0,8.7,50.1H51.3a1.613,1.613,0,0,0,1.611-1.612V18.485A1.613,1.613,0,0,0,51.3,16.873H46.869V14.989h4.745a3.209,3.209,0,0,1,3.205,3.205v13.9a.879.879,0,0,0,1.758,0v-13.9a4.968,4.968,0,0,0-4.963-4.963H46.869V2.417A2.42,2.42,0,0,0,44.452,0h-12.4a.879.879,0,1,0,0,1.758h12.4a.66.66,0,0,1,.659.659V42.91a.633.633,0,0,1-.633.633H15.516a.633.633,0,0,1-.633-.633V8.579h4.4a2.42,2.42,0,0,0,2.417-2.417v-4.4h6.242a.879.879,0,1,0,0-1.758H20.826A.885.885,0,0,0,20.2.257L13.383,7.079a.89.89,0,0,0-.257.621v5.531H8.38a4.968,4.968,0,0,0-4.963,4.963V48.829a4.949,4.949,0,0,0,1.149,3.154h-3A1.566,1.566,0,0,0,0,53.55v2.368a4.063,4.063,0,0,0,4.043,4.074ZM19.947,3V6.162a.66.66,0,0,1-.659.659H16.126ZM15.516,45.3H44.479a2.393,2.393,0,0,0,2.39-2.39V18.631h4.282V48.347H8.844V18.631h4.282V42.91a2.393,2.393,0,0,0,2.39,2.39Zm6.866,8.44H37.613v.71a.542.542,0,0,1-.527.541H22.909a.542.542,0,0,1-.527-.541Zm-20.623,0H20.624v.71a2.294,2.294,0,0,0,2.285,2.3H37.085a2.294,2.294,0,0,0,2.285-2.3v-.71H58.236v2.178a2.3,2.3,0,0,1-2.285,2.316H4.044a2.3,2.3,0,0,1-2.285-2.316Z" transform="translate(-0.001 0)"/>
      <path id="Path_7316" data-name="Path 7316" d="M240.077,84.986H225.759a.879.879,0,1,0,0,1.758h14.318a.879.879,0,1,0,0-1.758Z" transform="translate(-198.53 -75.028)"/>
      <path id="Path_7317" data-name="Path 7317" d="M240.077,114.586H225.759a.879.879,0,1,0,0,1.758h14.318a.879.879,0,1,0,0-1.758Z" transform="translate(-198.53 -101.16)"/>
      <path id="Path_7318" data-name="Path 7318" d="M240.077,154.008H225.759a.879.879,0,1,0,0,1.758h14.318a.879.879,0,1,0,0-1.758Z" transform="translate(-198.53 -135.963)"/>
      <path id="Path_7319" data-name="Path 7319" d="M240.077,183.608H225.759a.879.879,0,1,0,0,1.758h14.318a.879.879,0,1,0,0-1.758Z" transform="translate(-198.53 -162.094)"/>
      <path id="Path_7320" data-name="Path 7320" d="M240.077,223.029H225.759a.879.879,0,1,0,0,1.758h14.318a.879.879,0,1,0,0-1.758Z" transform="translate(-198.53 -196.896)"/>
      <path id="Path_7321" data-name="Path 7321" d="M240.077,252.629H225.759a.879.879,0,1,0,0,1.758h14.318a.879.879,0,1,0,0-1.758Z" transform="translate(-198.53 -223.028)"/>
      <path id="Path_7322" data-name="Path 7322" d="M159.516,292.308l-2.14,2.14-1.215-1.215a.879.879,0,1,0-1.243,1.243l1.837,1.837a.879.879,0,0,0,1.243,0l2.762-2.762a.879.879,0,1,0-1.243-1.243Z" transform="translate(-136.538 -257.83)"/>
      <path id="Path_7323" data-name="Path 7323" d="M240.077,292.05H225.759a.879.879,0,1,0,0,1.758h14.318a.879.879,0,1,0,0-1.758Z" transform="translate(-198.53 -257.83)"/>
      <path id="Path_7324" data-name="Path 7324" d="M240.077,321.65H225.759a.879.879,0,1,0,0,1.758h14.318a.879.879,0,1,0,0-1.758Z" transform="translate(-198.53 -283.962)"/>
    </g>
    <path id="Icon_awesome-heart" data-name="Icon awesome-heart" d="M30.168,4.247a8.924,8.924,0,0,0-12.177.887L16.705,6.459,15.42,5.134A8.923,8.923,0,0,0,3.243,4.247,9.37,9.37,0,0,0,2.6,17.813L15.224,30.851a2.046,2.046,0,0,0,2.956,0L30.807,17.813a9.364,9.364,0,0,0-.64-13.567Z" transform="translate(866.627 398.602)" fill="#f95850" opacity="0.4"/>
  </g>
</svg>
