<svg xmlns="http://www.w3.org/2000/svg" width="71.503" height="59.992" viewBox="0 0 71.503 59.992">
  <g id="Group_6742" data-name="Group 6742" transform="translate(-469 -376.199)">
    <circle id="Ellipse_495" data-name="Ellipse 495" cx="17" cy="17" r="17" transform="translate(469 381)" fill="#06d69b" opacity="0.5"/>
    <g id="open-book" transform="translate(480 376.199)">
      <path id="Path_7325" data-name="Path 7325" d="M283.274,285.035h14.287a1,1,0,0,0,0-1.991H283.274a1,1,0,0,0,0,1.991Z" transform="translate(-248.922 -249.853)"/>
      <path id="Path_7326" data-name="Path 7326" d="M298.732,320.6H286.7a1.817,1.817,0,0,0-1.815,1.815v9.023a1.817,1.817,0,0,0,1.815,1.815h12.031a1.817,1.817,0,0,0,1.815-1.815v-9.023A1.817,1.817,0,0,0,298.732,320.6Zm.043,10.839a.043.043,0,0,1-.043.043H286.7a.043.043,0,0,1-.043-.043v-9.023a.043.043,0,0,1,.043-.043h12.031a.043.043,0,0,1,.043.043Z" transform="translate(-251.22 -282.968)"/>
      <path id="Path_7327" data-name="Path 7327" d="M387.125,6.583a.886.886,0,0,0,.886-.886V3.045a.886.886,0,1,0-1.772,0V5.7A.886.886,0,0,0,387.125,6.583Z" transform="translate(-340.597 -2.159)"/>
      <path id="Path_7328" data-name="Path 7328" d="M319.859,27.055a.886.886,0,1,0,1.253-1.253l-1.875-1.875a.886.886,0,0,0-1.253,1.253Z" transform="translate(-280.18 -21.126)"/>
      <path id="Path_7329" data-name="Path 7329" d="M440.4,27.055l1.875-1.875a.886.886,0,0,0-1.253-1.253L439.15,25.8a.886.886,0,1,0,1.253,1.253Z" transform="translate(-387.026 -21.126)"/>
      <path id="Path_7330" data-name="Path 7330" d="M478.1,83.886H475.45a.886.886,0,0,0,0,1.773H478.1a.886.886,0,1,0,0-1.773Z" transform="translate(-418.485 -74.228)"/>
      <path id="Path_7331" data-name="Path 7331" d="M276.365,85.659h2.651a.886.886,0,0,0,0-1.773h-2.651a.886.886,0,0,0,0,1.773Z" transform="translate(-242.925 -74.228)"/>
      <path id="Path_7332" data-name="Path 7332" d="M75.393,170.439H89.681a1,1,0,1,0,0-1.99H75.393a1,1,0,1,0,0,1.99Z" transform="translate(-65.606 -148.799)"/>
      <path id="Path_7333" data-name="Path 7333" d="M75.393,208.638H89.681a1,1,0,1,0,0-1.99H75.393a1,1,0,1,0,0,1.99Z" transform="translate(-65.606 -182.484)"/>
      <path id="Path_7334" data-name="Path 7334" d="M90.676,245.841a1,1,0,0,0-1-1H75.393a1,1,0,1,0,0,1.99H89.681A1,1,0,0,0,90.676,245.841Z" transform="translate(-65.606 -216.168)"/>
      <path id="Path_7335" data-name="Path 7335" d="M75.393,390.08H89.681a1,1,0,0,0,0-1.99H75.393a1,1,0,1,0,0,1.99Z" transform="translate(-65.606 -342.485)"/>
      <path id="Path_7336" data-name="Path 7336" d="M56.1,73.151H54.982a8.453,8.453,0,0,0-1.129-5.115.886.886,0,1,0-1.527.9,6.694,6.694,0,0,1-.455,7.461l-.027.036A12.335,12.335,0,0,0,49.256,80.2H43.8a10.139,10.139,0,0,0-2.09-3.19,6.731,6.731,0,0,1,5.083-11.4,6.589,6.589,0,0,1,2.937.813.886.886,0,1,0,.851-1.555,8.5,8.5,0,0,0-12.423,6.023H30.923a2.584,2.584,0,0,0-1.71.645,2.585,2.585,0,0,0-1.71-.645H5.446a1.686,1.686,0,0,0-1.684,1.684v.578H2.322A2.325,2.325,0,0,0,0,75.474v23.5a.886.886,0,0,0,1.773,0v-.142c.121.011.021.008,1.989.008v9.86a1.686,1.686,0,0,0,1.684,1.684H27.5c.515,0,.666.387.824.536v2.752a3.846,3.846,0,0,0-2.071-.609H2.322a.55.55,0,0,1-.55-.55v-9.4a.886.886,0,0,0-1.773,0v9.4a2.325,2.325,0,0,0,2.322,2.322H26.255a2.081,2.081,0,0,1,1.788,1.025,1.353,1.353,0,0,0,2.34,0,2.081,2.081,0,0,1,1.788-1.025H56.1a2.325,2.325,0,0,0,2.322-2.322V75.474A2.325,2.325,0,0,0,56.1,73.151ZM44.071,83.822V81.971h4.913v1.851a2.456,2.456,0,1,1-4.913,0ZM30.923,72.662h7.118a8.561,8.561,0,0,0,.923,3.528H34.352a1,1,0,1,0,0,1.99h6.028A8.294,8.294,0,0,1,42.086,80.7H34.352a1,1,0,0,0,0,1.991H42.3v1.129a4.206,4.206,0,0,0,.238,1.395H34.352a1,1,0,1,0,0,1.99l9.6-.034a4.226,4.226,0,0,0,6.8-3.352V81.241a8.841,8.841,0,0,1,2.135-3.294V108.61H30.923a2.635,2.635,0,0,0-.808.129l-.016,0V73.486a.824.824,0,0,1,.824-.824ZM1.773,75.474a.55.55,0,0,1,.55-.55H3.762V90.431H1.948q-.089,0-.175.008Zm.175,21.592a.176.176,0,0,1-.175-.175V92.379a.176.176,0,0,1,.175-.175H5.293v4.862H1.948Zm16.7,1.773a.9.9,0,0,0,.506-.159l0,0L23.1,95.9a1.55,1.55,0,0,0,0-2.534l-3.941-2.775-.005,0a.883.883,0,0,0-.465-.156l-.04,0H5.534V72.662H27.5a.824.824,0,0,1,.824.824v35.258a2.652,2.652,0,0,0-.824-.134H5.534V98.838H18.653Zm-.886-1.773H7.065V92.2h10.7Zm4.058-2.431-2.285,1.609V93.025Zm34.829,17.876a.55.55,0,0,1-.55.55H32.171a3.847,3.847,0,0,0-2.071.609v-2.752c.168-.159.3-.536.824-.536H52.98a1.686,1.686,0,0,0,1.684-1.684V74.924H56.1a.55.55,0,0,1,.55.55Z" transform="translate(0 -56.539)"/>
    </g>
  </g>
</svg>
