<svg xmlns="http://www.w3.org/2000/svg" width="71.6" height="56.472" viewBox="0 0 71.6 56.472">
  <g id="Group_6574" data-name="Group 6574" transform="translate(-340.774 -1056)">
    <g id="book" transform="translate(383.5 1054.204)" opacity="0.5">
      <path id="Path_7090" data-name="Path 7090" d="M62.258,21.754a1.176,1.176,0,0,0-.577-.913A28.224,28.224,0,0,0,48.461,17.8a28.947,28.947,0,0,0-12.748,2.78A28.947,28.947,0,0,0,22.966,17.8a27.974,27.974,0,0,0-13.22,3.043.975.975,0,0,0-.472.787v5.215c0,4.832,30.419,40.826,52.984,4.6ZM60.317,57.877a29.539,29.539,0,0,0-11.856-2.361,29.718,29.718,0,0,0-11.856,2.361Zm-25.5,0C31.1,56.3,27.058,53.6,22.966,53.653c-4.092-.052-8.079,2.65-11.856,4.224ZM9.274,26.244v33.1a.9.9,0,0,0,1.364.787,30.773,30.773,0,0,1,12.328-2.256,32.235,32.235,0,0,1,12.328,2.256,1,1,0,0,0,.944,0c.052-.052,4.721-2.256,12.223-2.256a33.144,33.144,0,0,1,12.433,2.256.9.9,0,0,0,1.364-.787v-33.1Z" transform="translate(-52 -2)" fill="#ffcd20"/>
    </g>
    <g id="book-2" data-name="book" transform="translate(345.5 1038.204)">
      <path id="Path_7080" data-name="Path 7080" d="M23.365,56.761a29.79,29.79,0,0,1,16.053,0,.951.951,0,0,0,1.154-.63.873.873,0,0,0-.63-1.1,31.374,31.374,0,0,0-17.049,0,.927.927,0,0,0-.63,1.154A.861.861,0,0,0,23.365,56.761Z" transform="translate(-8.425 -17.14)"/>
      <path id="Path_7082" data-name="Path 7082" d="M23.365,32.861a29.789,29.789,0,0,1,16.053,0,.951.951,0,0,0,1.154-.63.873.873,0,0,0-.63-1.1,31.374,31.374,0,0,0-17.049,0,.927.927,0,0,0-.63,1.154A.9.9,0,0,0,23.365,32.861Z" transform="translate(-8.425 -2.778)"/>
      <path id="Path_7084" data-name="Path 7084" d="M23.365,80.761a29.79,29.79,0,0,1,16.053,0,.951.951,0,0,0,1.154-.63.873.873,0,0,0-.63-1.1,31.374,31.374,0,0,0-17.049,0,.927.927,0,0,0-.63,1.154A.9.9,0,0,0,23.365,80.761Z" transform="translate(-8.425 -31.55)"/>
      <path id="Path_7085" data-name="Path 7085" d="M71.965,56.761a29.79,29.79,0,0,1,16.053,0,.951.951,0,0,0,1.154-.63.873.873,0,0,0-.63-1.1,31.374,31.374,0,0,0-17.049,0,.927.927,0,0,0-.63,1.154A.908.908,0,0,0,71.965,56.761Z" transform="translate(-31.53 -17.14)"/>
      <path id="Path_7087" data-name="Path 7087" d="M71.965,32.861a29.789,29.789,0,0,1,16.053,0,.951.951,0,0,0,1.154-.63.873.873,0,0,0-.63-1.1,31.374,31.374,0,0,0-17.049,0,.927.927,0,0,0-.63,1.154A.958.958,0,0,0,71.965,32.861Z" transform="translate(-31.53 -2.778)"/>
      <path id="Path_7089" data-name="Path 7089" d="M88.542,78.93a31.374,31.374,0,0,0-17.049,0,.927.927,0,0,0-.63,1.154.94.94,0,0,0,1.1.63,29.789,29.789,0,0,1,16.053,0,.951.951,0,0,0,1.154-.63A.927.927,0,0,0,88.542,78.93Z" transform="translate(-31.53 -31.502)"/>
      <path id="Path_7090-2" data-name="Path 7090" d="M65.982,24.408h-3.83v-2.78a.865.865,0,0,0-.472-.787A28.224,28.224,0,0,0,48.461,17.8a28.947,28.947,0,0,0-12.748,2.78A28.947,28.947,0,0,0,22.966,17.8a27.974,27.974,0,0,0-13.22,3.043.975.975,0,0,0-.472.787v2.78H5.444a.94.94,0,0,0-.944.944V63.071a.968.968,0,0,0,.892.944H31.149a3.148,3.148,0,0,0,3.043,2.256H37.13a3.212,3.212,0,0,0,3.043-2.256H65.93a.968.968,0,0,0,.944-.892V25.352a.9.9,0,0,0-.892-.944Zm-5.666-2.2V57.877a29.539,29.539,0,0,0-11.856-2.361,29.718,29.718,0,0,0-11.856,2.361V22.2a28.052,28.052,0,0,1,11.856-2.571A28.688,28.688,0,0,1,60.317,22.2Zm-49.207,0a28.052,28.052,0,0,1,11.856-2.571A27.282,27.282,0,0,1,34.822,22.2V57.877a29.539,29.539,0,0,0-11.856-2.361A29.718,29.718,0,0,0,11.11,57.877ZM65.038,62.126h-25.6a.975.975,0,0,0-.944.944,1.389,1.389,0,0,1-1.364,1.364H34.192a1.389,1.389,0,0,1-1.364-1.364.975.975,0,0,0-.944-.944H6.389V26.244H9.274v33.1a.9.9,0,0,0,1.364.787,26.119,26.119,0,0,1,12.328-2.78,27.155,27.155,0,0,1,12.328,2.78,1,1,0,0,0,.944,0,26.119,26.119,0,0,1,12.328-2.78,27.155,27.155,0,0,1,12.328,2.78.9.9,0,0,0,1.364-.787v-33.1h2.885Z" transform="translate(0 0)"/>
    </g>
  </g>
</svg>
