<svg xmlns="http://www.w3.org/2000/svg" width="1367.414" height="407.233" viewBox="0 0 1367.414 407.233">
  <g id="Group_6744" data-name="Group 6744" transform="translate(0 -362)">
    <g id="Group_6262" data-name="Group 6262" transform="translate(406 -432)">
      <g id="Ellipse_390" data-name="Ellipse 390" transform="translate(571 794)" fill="none" stroke="#e9edf4" stroke-width="1">
        <circle cx="177.5" cy="177.5" r="177.5" stroke="none"/>
        <circle cx="177.5" cy="177.5" r="177" fill="none"/>
      </g>
      <g id="Ellipse_391" data-name="Ellipse 391" transform="translate(590 813)" fill="none" stroke="#e9edf4" stroke-width="1">
        <circle cx="158.5" cy="158.5" r="158.5" stroke="none"/>
        <circle cx="158.5" cy="158.5" r="158" fill="none"/>
      </g>
      <g id="Ellipse_392" data-name="Ellipse 392" transform="translate(610 833)" fill="none" stroke="#e9edf4" stroke-width="1">
        <circle cx="138.5" cy="138.5" r="138.5" stroke="none"/>
        <circle cx="138.5" cy="138.5" r="138" fill="none"/>
      </g>
      <g id="Ellipse_393" data-name="Ellipse 393" transform="translate(630 853)" fill="none" stroke="#e9edf4" stroke-width="1">
        <circle cx="118.5" cy="118.5" r="118.5" stroke="none"/>
        <circle cx="118.5" cy="118.5" r="118" fill="none"/>
      </g>
      <g id="Ellipse_394" data-name="Ellipse 394" transform="translate(649 872)" fill="none" stroke="#e9edf4" stroke-width="1">
        <circle cx="99.5" cy="99.5" r="99.5" stroke="none"/>
        <circle cx="99.5" cy="99.5" r="99" fill="none"/>
      </g>
      <g id="Ellipse_395" data-name="Ellipse 395" transform="translate(668 891)" fill="none" stroke="#e9edf4" stroke-width="1">
        <circle cx="80.5" cy="80.5" r="80.5" stroke="none"/>
        <circle cx="80.5" cy="80.5" r="80" fill="none"/>
      </g>
      <g id="Ellipse_396" data-name="Ellipse 396" transform="translate(686 909)" fill="none" stroke="#e9edf4" stroke-width="1">
        <circle cx="62.5" cy="62.5" r="62.5" stroke="none"/>
        <circle cx="62.5" cy="62.5" r="62" fill="none"/>
      </g>
      <g id="Ellipse_397" data-name="Ellipse 397" transform="translate(705 928)" fill="none" stroke="#e9edf4" stroke-width="1">
        <circle cx="43.5" cy="43.5" r="43.5" stroke="none"/>
        <circle cx="43.5" cy="43.5" r="43" fill="none"/>
      </g>
      <g id="Ellipse_398" data-name="Ellipse 398" transform="translate(720 943)" fill="none" stroke="#e9edf4" stroke-width="1">
        <circle cx="28.5" cy="28.5" r="28.5" stroke="none"/>
        <circle cx="28.5" cy="28.5" r="28" fill="none"/>
      </g>
      <g id="Ellipse_399" data-name="Ellipse 399" transform="translate(734 957)" fill="none" stroke="#e9edf4" stroke-width="1">
        <circle cx="14.5" cy="14.5" r="14.5" stroke="none"/>
        <circle cx="14.5" cy="14.5" r="14" fill="none"/>
      </g>
    </g>
    <circle id="Ellipse_522" data-name="Ellipse 522" cx="71.5" cy="71.5" r="71.5" transform="translate(995 442)" fill="#2680eb"/>
    <path id="Path_6563" data-name="Path 6563" d="M-15807.586,9423.534s-211.016,125.9-587.225,70.652-619.566-151.507-780.189,0v67.047h1367.414Z" transform="translate(17175 -8792)" fill="#e9f2fd"/>
  </g>
</svg>
