<svg xmlns="http://www.w3.org/2000/svg" width="59.701" height="64.001" viewBox="0 0 59.701 64.001">
  <g id="test" transform="translate(-4.983)">
    <g id="Group_6576" data-name="Group 6576" transform="translate(25.983 10)" opacity="0.4">
      <g id="Group_6557" data-name="Group 6557" transform="translate(0)">
        <path id="Path_7075" data-name="Path 7075" d="M42.784,0H5.883a.9.9,0,0,0-.9.9V53.1a.9.9,0,0,0,.9.9h36.9a.9.9,0,0,0,.9-.9V.9A.9.9,0,0,0,42.784,0Z" transform="translate(-4.983)" fill="#f95850"/>
      </g>
    </g>
    <g id="Group_6558" data-name="Group 6558" transform="translate(4.983)">
      <g id="Group_6557-2" data-name="Group 6557" transform="translate(0)">
        <path id="Path_7075-2" data-name="Path 7075" d="M42.784,0H5.883a.9.9,0,0,0-.9.9V53.1a.9.9,0,0,0,.9.9h36.9a.9.9,0,0,0,.9-.9V.9A.9.9,0,0,0,42.784,0Zm-.9,52.2H6.783V1.8h35.1V52.2Z" transform="translate(-4.983)"/>
      </g>
    </g>
    <g id="Group_6560" data-name="Group 6560" transform="translate(12.183 35.1)">
      <g id="Group_6559" data-name="Group 6559" transform="translate(0)">
        <path id="Path_7076" data-name="Path 7076" d="M81.35,332.8h-7.2a.9.9,0,0,0-.9.9v7.2a.9.9,0,0,0,.9.9h7.2a.9.9,0,0,0,.9-.9v-7.2A.9.9,0,0,0,81.35,332.8Zm-.9,7.2h-5.4v-5.4h5.4Z" transform="translate(-73.25 -332.8)"/>
      </g>
    </g>
    <g id="Group_6562" data-name="Group 6562" transform="translate(12.498 11.016)">
      <g id="Group_6561" data-name="Group 6561">
        <path id="Path_7077" data-name="Path 7077" d="M85.236,104.448l-5.714,4.9-2.115-1.813-1.17,1.367,2.7,2.314a.9.9,0,0,0,1.17,0l6.3-5.4Z" transform="translate(-76.237 -104.448)"/>
      </g>
    </g>
    <g id="Group_6564" data-name="Group 6564" transform="translate(12.447 22.764)">
      <g id="Group_6563" data-name="Group 6563" transform="translate(0)">
        <path id="Path_7078" data-name="Path 7078" d="M84.223,217.107l-1.273-1.273L79.986,218.8l-2.964-2.964-1.273,1.273,2.964,2.964-2.964,2.964,1.273,1.273,2.964-2.964,2.964,2.964,1.273-1.273-2.964-2.964Z" transform="translate(-75.75 -215.834)"/>
      </g>
    </g>
    <g id="Group_6566" data-name="Group 6566" transform="translate(25.683 13.5)">
      <g id="Group_6565" data-name="Group 6565">
        <rect id="Rectangle_1276" data-name="Rectangle 1276" width="10.8" height="1.8"/>
      </g>
    </g>
    <g id="Group_6568" data-name="Group 6568" transform="translate(25.683 26.1)">
      <g id="Group_6567" data-name="Group 6567">
        <rect id="Rectangle_1277" data-name="Rectangle 1277" width="10.8" height="1.8"/>
      </g>
    </g>
    <g id="Group_6570" data-name="Group 6570" transform="translate(25.683 38.7)">
      <g id="Group_6569" data-name="Group 6569">
        <rect id="Rectangle_1278" data-name="Rectangle 1278" width="10.8" height="1.8"/>
      </g>
    </g>
    <g id="Group_6572" data-name="Group 6572" transform="translate(50.484 9.9)">
      <g id="Group_6571" data-name="Group 6571">
        <path id="Path_7079" data-name="Path 7079" d="M399.783,107.094v-6.027a.9.9,0,0,0-.9-.9h-2.7v-3.6a2.7,2.7,0,0,0-2.7-2.7h-1.8a2.7,2.7,0,0,0-2.7,2.7v27a.9.9,0,0,0,.129.464l2.7,4.5a.9.9,0,0,0,1.543,0l2.7-4.5a.9.9,0,0,0,.129-.464v-21.6h1.8v5.4a.9.9,0,0,0,.151.5l1.8,2.7,1.5-1Zm-7.2,19.223-1.651-2.75h3.3Zm1.8-4.551h-3.6v-7.2h3.6Zm0-9h-3.6v-10.8h3.6Zm0-12.6h-3.6v-3.6a.9.9,0,0,1,.9-.9h1.8a.9.9,0,0,1,.9.9Z" transform="translate(-388.983 -93.867)"/>
      </g>
    </g>
  </g>
</svg>
