<svg xmlns="http://www.w3.org/2000/svg" xmlns:xlink="http://www.w3.org/1999/xlink" width="1920" height="352.888" viewBox="0 0 1920 352.888">
  <defs>
    <clipPath id="clip-path">
      <path id="Path_7437" data-name="Path 7437" d="M-15255,10137.754s-137.264-146.516-368.557-153.932-360.947,20.486-791.451,164.932-704.152-22.746-759.992-22.746v124.205s274.289,120.043,542.438,75.5,592.764-185.949,795.328-207.838c480-51.867,582.234,172.627,582.234,172.627Z" transform="translate(17175 -9982.734)" fill="#e9f2fd"/>
    </clipPath>
  </defs>
  <g id="Group_6746" data-name="Group 6746" transform="translate(18808 -12758.793)">
    <path id="Intersection_8" data-name="Intersection 8" d="M0,147.838V0H1919.419V186.934c-8.844-17.488-122.161-221.086-581.653-171.434C1135.2,37.387,810.589,178.791,542.439,223.336a764.894,764.894,0,0,1-125.271,9.911C195.174,233.236,0,147.838,0,147.838Z" transform="translate(-18808 12759.084)" fill="#e9f2fd"/>
    <g id="Mask_Group_22" data-name="Mask Group 22" transform="translate(-18808 12758.793)" clip-path="url(#clip-path)">
      <g id="Group_6745" data-name="Group 6745" transform="translate(-52.654 -14.849)">
        <path id="Path_7349" data-name="Path 7349" d="M-17170.021,11402l55.486,365.055" transform="translate(17170.021 -11402.002)" fill="#fff" stroke="#e9edf4" stroke-width="1"/>
        <path id="Path_7350" data-name="Path 7350" d="M-17170.021,11402l55.486,365.055" transform="translate(17484.543 -11402.002)" fill="#fff" stroke="#e9edf4" stroke-width="1"/>
        <path id="Path_7351" data-name="Path 7351" d="M-17170.021,11402l55.486,365.055" transform="translate(17797.658 -11402.002)" fill="#fff" stroke="#e9edf4" stroke-width="1"/>
        <path id="Path_7352" data-name="Path 7352" d="M-17170.021,11402l55.486,365.055" transform="translate(18112.18 -11402.002)" fill="#fff" stroke="#e9edf4" stroke-width="1"/>
        <path id="Path_7353" data-name="Path 7353" d="M-17170.021,11402l55.486,365.055" transform="translate(18494.098 -11402.002)" fill="#fff" stroke="#e9edf4" stroke-width="1"/>
        <path id="Path_7354" data-name="Path 7354" d="M-17170.021,11402l55.486,365.055" transform="translate(18874.611 -11402.002)" fill="#fff" stroke="#e9edf4" stroke-width="1"/>
        <path id="Path_7355" data-name="Path 7355" d="M-17170.021,11402l55.486,365.055" transform="translate(17192.486 -11402.002)" fill="#fff" stroke="#e9edf4" stroke-width="1"/>
        <path id="Path_7356" data-name="Path 7356" d="M-17170.021,11402l55.486,365.055" transform="translate(17507.008 -11402.002)" fill="#fff" stroke="#e9edf4" stroke-width="1"/>
        <path id="Path_7357" data-name="Path 7357" d="M-17170.021,11402l55.486,365.055" transform="translate(17820.125 -11402.002)" fill="#fff" stroke="#e9edf4" stroke-width="1"/>
        <path id="Path_7358" data-name="Path 7358" d="M-17170.021,11402l55.486,365.055" transform="translate(18134.645 -11402.002)" fill="#fff" stroke="#e9edf4" stroke-width="1"/>
        <path id="Path_7359" data-name="Path 7359" d="M-17170.021,11402l55.486,365.055" transform="translate(18516.563 -11402.002)" fill="#fff" stroke="#e9edf4" stroke-width="1"/>
        <path id="Path_7360" data-name="Path 7360" d="M-17170.021,11402l55.486,365.055" transform="translate(18897.076 -11402.002)" fill="#fff" stroke="#e9edf4" stroke-width="1"/>
        <path id="Path_7361" data-name="Path 7361" d="M-17170.021,11402l55.486,365.055" transform="translate(17214.953 -11402.002)" fill="#fff" stroke="#e9edf4" stroke-width="1"/>
        <path id="Path_7362" data-name="Path 7362" d="M-17170.021,11402l55.486,365.055" transform="translate(17529.475 -11402.002)" fill="#fff" stroke="#e9edf4" stroke-width="1"/>
        <path id="Path_7363" data-name="Path 7363" d="M-17170.021,11402l55.486,365.055" transform="translate(17842.59 -11402.002)" fill="#fff" stroke="#e9edf4" stroke-width="1"/>
        <path id="Path_7364" data-name="Path 7364" d="M-17170.021,11402l55.486,365.055" transform="translate(18157.111 -11402.002)" fill="#fff" stroke="#e9edf4" stroke-width="1"/>
        <path id="Path_7365" data-name="Path 7365" d="M-17170.021,11402l55.486,365.055" transform="translate(18539.029 -11402.002)" fill="#fff" stroke="#e9edf4" stroke-width="1"/>
        <path id="Path_7366" data-name="Path 7366" d="M-17170.021,11402l55.486,365.055" transform="translate(18919.543 -11402.002)" fill="#fff" stroke="#e9edf4" stroke-width="1"/>
        <path id="Path_7367" data-name="Path 7367" d="M-17170.021,11402l55.486,365.055" transform="translate(17237.418 -11402.002)" fill="#fff" stroke="#e9edf4" stroke-width="1"/>
        <path id="Path_7368" data-name="Path 7368" d="M-17170.021,11402l55.486,365.055" transform="translate(17551.939 -11402.002)" fill="#fff" stroke="#e9edf4" stroke-width="1"/>
        <path id="Path_7369" data-name="Path 7369" d="M-17170.021,11402l55.486,365.055" transform="translate(17865.057 -11402.002)" fill="#fff" stroke="#e9edf4" stroke-width="1"/>
        <path id="Path_7370" data-name="Path 7370" d="M-17170.021,11402l55.486,365.055" transform="translate(18179.576 -11402.002)" fill="#fff" stroke="#e9edf4" stroke-width="1"/>
        <path id="Path_7371" data-name="Path 7371" d="M-17170.021,11402l55.486,365.055" transform="translate(18561.494 -11402.002)" fill="#fff" stroke="#e9edf4" stroke-width="1"/>
        <path id="Path_7372" data-name="Path 7372" d="M-17170.021,11402l55.486,365.055" transform="translate(18942.008 -11402.002)" fill="#fff" stroke="#e9edf4" stroke-width="1"/>
        <path id="Path_7373" data-name="Path 7373" d="M-17170.021,11402l55.486,365.055" transform="translate(17259.885 -11402.002)" fill="#fff" stroke="#e9edf4" stroke-width="1"/>
        <path id="Path_7374" data-name="Path 7374" d="M-17170.021,11402l55.486,365.055" transform="translate(17574.404 -11402.002)" fill="#fff" stroke="#e9edf4" stroke-width="1"/>
        <path id="Path_7375" data-name="Path 7375" d="M-17170.021,11402l55.486,365.055" transform="translate(17887.521 -11402.002)" fill="#fff" stroke="#e9edf4" stroke-width="1"/>
        <path id="Path_7376" data-name="Path 7376" d="M-17170.021,11402l55.486,365.055" transform="translate(18202.043 -11402.002)" fill="#fff" stroke="#e9edf4" stroke-width="1"/>
        <path id="Path_7377" data-name="Path 7377" d="M-17170.021,11402l55.486,365.055" transform="translate(18583.961 -11402.002)" fill="#fff" stroke="#e9edf4" stroke-width="1"/>
        <path id="Path_7378" data-name="Path 7378" d="M-17170.021,11402l55.486,365.055" transform="translate(18964.475 -11402.002)" fill="#fff" stroke="#e9edf4" stroke-width="1"/>
        <path id="Path_7379" data-name="Path 7379" d="M-17170.021,11402l55.486,365.055" transform="translate(17282.35 -11402.002)" fill="#fff" stroke="#e9edf4" stroke-width="1"/>
        <path id="Path_7380" data-name="Path 7380" d="M-17170.021,11402l55.486,365.055" transform="translate(17596.871 -11402.002)" fill="#fff" stroke="#e9edf4" stroke-width="1"/>
        <path id="Path_7381" data-name="Path 7381" d="M-17170.021,11402l55.486,365.055" transform="translate(17909.988 -11402.002)" fill="#fff" stroke="#e9edf4" stroke-width="1"/>
        <path id="Path_7382" data-name="Path 7382" d="M-17170.021,11402l55.486,365.055" transform="translate(18224.508 -11402.002)" fill="#fff" stroke="#e9edf4" stroke-width="1"/>
        <path id="Path_7383" data-name="Path 7383" d="M-17170.021,11402l55.486,365.055" transform="translate(18606.426 -11402.002)" fill="#fff" stroke="#e9edf4" stroke-width="1"/>
        <path id="Path_7384" data-name="Path 7384" d="M-17170.021,11402l55.486,365.055" transform="translate(18986.939 -11402.002)" fill="#fff" stroke="#e9edf4" stroke-width="1"/>
        <path id="Path_7385" data-name="Path 7385" d="M-17170.021,11402l55.486,365.055" transform="translate(17304.816 -11402.002)" fill="#fff" stroke="#e9edf4" stroke-width="1"/>
        <path id="Path_7386" data-name="Path 7386" d="M-17170.021,11402l55.486,365.055" transform="translate(17619.336 -11402.002)" fill="#fff" stroke="#e9edf4" stroke-width="1"/>
        <path id="Path_7387" data-name="Path 7387" d="M-17170.021,11402l55.486,365.055" transform="translate(17932.453 -11402.002)" fill="#fff" stroke="#e9edf4" stroke-width="1"/>
        <path id="Path_7388" data-name="Path 7388" d="M-17170.021,11402l55.486,365.055" transform="translate(18246.975 -11402.002)" fill="#fff" stroke="#e9edf4" stroke-width="1"/>
        <path id="Path_7389" data-name="Path 7389" d="M-17170.021,11402l55.486,365.055" transform="translate(18628.893 -11402.002)" fill="#fff" stroke="#e9edf4" stroke-width="1"/>
        <path id="Path_7390" data-name="Path 7390" d="M-17170.021,11402l55.486,365.055" transform="translate(19009.406 -11402.002)" fill="#fff" stroke="#e9edf4" stroke-width="1"/>
        <path id="Path_7391" data-name="Path 7391" d="M-17170.021,11402l55.486,365.055" transform="translate(17327.281 -11402.002)" fill="#fff" stroke="#e9edf4" stroke-width="1"/>
        <path id="Path_7392" data-name="Path 7392" d="M-17170.021,11402l55.486,365.055" transform="translate(17641.803 -11402.002)" fill="#fff" stroke="#e9edf4" stroke-width="1"/>
        <path id="Path_7393" data-name="Path 7393" d="M-17170.021,11402l55.486,365.055" transform="translate(17954.92 -11402.002)" fill="#fff" stroke="#e9edf4" stroke-width="1"/>
        <path id="Path_7394" data-name="Path 7394" d="M-17170.021,11402l55.486,365.055" transform="translate(18269.439 -11402.002)" fill="#fff" stroke="#e9edf4" stroke-width="1"/>
        <path id="Path_7395" data-name="Path 7395" d="M-17170.021,11402l55.486,365.055" transform="translate(18649.953 -11402.002)" fill="#fff" stroke="#e9edf4" stroke-width="1"/>
        <path id="Path_7396" data-name="Path 7396" d="M-17170.021,11402l55.486,365.055" transform="translate(19031.871 -11402.002)" fill="#fff" stroke="#e9edf4" stroke-width="1"/>
        <path id="Path_7397" data-name="Path 7397" d="M-17170.021,11402l55.486,365.055" transform="translate(17349.748 -11402.002)" fill="#fff" stroke="#e9edf4" stroke-width="1"/>
        <path id="Path_7398" data-name="Path 7398" d="M-17170.021,11402l55.486,365.055" transform="translate(17662.863 -11402.002)" fill="#fff" stroke="#e9edf4" stroke-width="1"/>
        <path id="Path_7399" data-name="Path 7399" d="M-17170.021,11402l55.486,365.055" transform="translate(17977.385 -11402.002)" fill="#fff" stroke="#e9edf4" stroke-width="1"/>
        <path id="Path_7400" data-name="Path 7400" d="M-17170.021,11402l55.486,365.055" transform="translate(18291.906 -11402.002)" fill="#fff" stroke="#e9edf4" stroke-width="1"/>
        <path id="Path_7401" data-name="Path 7401" d="M-17170.021,11402l55.486,365.055" transform="translate(18672.42 -11402.002)" fill="#fff" stroke="#e9edf4" stroke-width="1"/>
        <path id="Path_7402" data-name="Path 7402" d="M-17170.021,11402l55.486,365.055" transform="translate(19054.338 -11402.002)" fill="#fff" stroke="#e9edf4" stroke-width="1"/>
        <path id="Path_7403" data-name="Path 7403" d="M-17170.021,11402l55.486,365.055" transform="translate(17372.213 -11402.002)" fill="#fff" stroke="#e9edf4" stroke-width="1"/>
        <path id="Path_7404" data-name="Path 7404" d="M-17170.021,11402l55.486,365.055" transform="translate(17685.33 -11402.002)" fill="#fff" stroke="#e9edf4" stroke-width="1"/>
        <path id="Path_7405" data-name="Path 7405" d="M-17170.021,11402l55.486,365.055" transform="translate(17999.852 -11402.002)" fill="#fff" stroke="#e9edf4" stroke-width="1"/>
        <path id="Path_7406" data-name="Path 7406" d="M-17170.021,11402l55.486,365.055" transform="translate(18314.371 -11402.002)" fill="#fff" stroke="#e9edf4" stroke-width="1"/>
        <path id="Path_7407" data-name="Path 7407" d="M-17170.021,11402l55.486,365.055" transform="translate(18694.885 -11402.002)" fill="#fff" stroke="#e9edf4" stroke-width="1"/>
        <path id="Path_7408" data-name="Path 7408" d="M-17170.021,11402l55.486,365.055" transform="translate(19076.803 -11402.002)" fill="#fff" stroke="#e9edf4" stroke-width="1"/>
        <path id="Path_7409" data-name="Path 7409" d="M-17170.021,11402l55.486,365.055" transform="translate(17394.68 -11402.002)" fill="#fff" stroke="#e9edf4" stroke-width="1"/>
        <path id="Path_7410" data-name="Path 7410" d="M-17170.021,11402l55.486,365.055" transform="translate(17707.795 -11402.002)" fill="#fff" stroke="#e9edf4" stroke-width="1"/>
        <path id="Path_7411" data-name="Path 7411" d="M-17170.021,11402l55.486,365.055" transform="translate(18022.316 -11402.002)" fill="#fff" stroke="#e9edf4" stroke-width="1"/>
        <path id="Path_7412" data-name="Path 7412" d="M-17170.021,11402l55.486,365.055" transform="translate(18336.838 -11402.002)" fill="#fff" stroke="#e9edf4" stroke-width="1"/>
        <path id="Path_7413" data-name="Path 7413" d="M-17170.021,11402l55.486,365.055" transform="translate(18717.352 -11402.002)" fill="#fff" stroke="#e9edf4" stroke-width="1"/>
        <path id="Path_7414" data-name="Path 7414" d="M-17170.021,11402l55.486,365.055" transform="translate(19099.27 -11402.002)" fill="#fff" stroke="#e9edf4" stroke-width="1"/>
        <path id="Path_7415" data-name="Path 7415" d="M-17170.021,11402l55.486,365.055" transform="translate(17417.145 -11402.002)" fill="#fff" stroke="#e9edf4" stroke-width="1"/>
        <path id="Path_7416" data-name="Path 7416" d="M-17170.021,11402l55.486,365.055" transform="translate(17730.262 -11402.002)" fill="#fff" stroke="#e9edf4" stroke-width="1"/>
        <path id="Path_7417" data-name="Path 7417" d="M-17170.021,11402l55.486,365.055" transform="translate(18044.781 -11402.002)" fill="#fff" stroke="#e9edf4" stroke-width="1"/>
        <path id="Path_7418" data-name="Path 7418" d="M-17170.021,11402l55.486,365.055" transform="translate(18426.699 -11402.002)" fill="#fff" stroke="#e9edf4" stroke-width="1"/>
        <path id="Path_7419" data-name="Path 7419" d="M-17170.021,11402l55.486,365.055" transform="translate(18807.215 -11402.002)" fill="#fff" stroke="#e9edf4" stroke-width="1"/>
        <path id="Path_7420" data-name="Path 7420" d="M-17170.021,11402l55.486,365.055" transform="translate(18359.303 -11402.002)" fill="#fff" stroke="#e9edf4" stroke-width="1"/>
        <path id="Path_7421" data-name="Path 7421" d="M-17170.021,11402l55.486,365.055" transform="translate(18739.816 -11402.002)" fill="#fff" stroke="#e9edf4" stroke-width="1"/>
        <path id="Path_7422" data-name="Path 7422" d="M-17170.021,11402l55.486,365.055" transform="translate(19121.734 -11402.002)" fill="#fff" stroke="#e9edf4" stroke-width="1"/>
        <path id="Path_7423" data-name="Path 7423" d="M-17170.021,11402l55.486,365.055" transform="translate(17439.611 -11402.002)" fill="#fff" stroke="#e9edf4" stroke-width="1"/>
        <path id="Path_7424" data-name="Path 7424" d="M-17170.021,11402l55.486,365.055" transform="translate(17752.727 -11402.002)" fill="#fff" stroke="#e9edf4" stroke-width="1"/>
        <path id="Path_7425" data-name="Path 7425" d="M-17170.021,11402l55.486,365.055" transform="translate(18067.248 -11402.002)" fill="#fff" stroke="#e9edf4" stroke-width="1"/>
        <path id="Path_7426" data-name="Path 7426" d="M-17170.021,11402l55.486,365.055" transform="translate(18449.166 -11402.002)" fill="#fff" stroke="#e9edf4" stroke-width="1"/>
        <path id="Path_7427" data-name="Path 7427" d="M-17170.021,11402l55.486,365.055" transform="translate(18829.68 -11402.002)" fill="#fff" stroke="#e9edf4" stroke-width="1"/>
        <path id="Path_7428" data-name="Path 7428" d="M-17170.021,11402l55.486,365.055" transform="translate(18381.77 -11402.002)" fill="#fff" stroke="#e9edf4" stroke-width="1"/>
        <path id="Path_7429" data-name="Path 7429" d="M-17170.021,11402l55.486,365.055" transform="translate(18762.283 -11402.002)" fill="#fff" stroke="#e9edf4" stroke-width="1"/>
        <path id="Path_7430" data-name="Path 7430" d="M-17170.021,11402l55.486,365.055" transform="translate(17462.076 -11402.002)" fill="#fff" stroke="#e9edf4" stroke-width="1"/>
        <path id="Path_7431" data-name="Path 7431" d="M-17170.021,11402l55.486,365.055" transform="translate(17775.193 -11402.002)" fill="#fff" stroke="#e9edf4" stroke-width="1"/>
        <path id="Path_7432" data-name="Path 7432" d="M-17170.021,11402l55.486,365.055" transform="translate(18089.713 -11402.002)" fill="#fff" stroke="#e9edf4" stroke-width="1"/>
        <path id="Path_7433" data-name="Path 7433" d="M-17170.021,11402l55.486,365.055" transform="translate(18471.631 -11402.002)" fill="#fff" stroke="#e9edf4" stroke-width="1"/>
        <path id="Path_7434" data-name="Path 7434" d="M-17170.021,11402l55.486,365.055" transform="translate(18852.145 -11402.002)" fill="#fff" stroke="#e9edf4" stroke-width="1"/>
        <path id="Path_7435" data-name="Path 7435" d="M-17170.021,11402l55.486,365.055" transform="translate(18404.234 -11402.002)" fill="#fff" stroke="#e9edf4" stroke-width="1"/>
        <path id="Path_7436" data-name="Path 7436" d="M-17170.021,11402l55.486,365.055" transform="translate(18784.748 -11402.002)" fill="#fff" stroke="#e9edf4" stroke-width="1"/>
      </g>
    </g>
  </g>
</svg>
