<svg xmlns="http://www.w3.org/2000/svg" width="162.652" height="162.891" viewBox="0 0 162.652 162.891">
  <g id="Sign_In_Screen_" data-name="Sign In Screen " transform="translate(-169 -63.64)">
    <path id="Path_59" data-name="Path 59" d="M73.3,98.372c-.217.185-.386.31-.534.457-4.388,4.365-8.784,8.723-13.141,13.119a2.2,2.2,0,0,0-.514,1.411c-.039,4.4.026,8.8-.036,13.2a6.943,6.943,0,0,1-10.55,6.054,6.378,6.378,0,0,1-3.334-5.55c-.073-6.01-.057-12.021-.015-18.032a6.905,6.905,0,0,1,2.382-4.882q18.16-18.042,36.3-36.106,14.8-14.725,29.589-29.456a7.006,7.006,0,0,1,6.613-2.213A6.975,6.975,0,0,1,123.8,48c-1.791,1.9-3.683,3.7-5.535,5.545Q101.151,70.578,84.033,87.611c-.25.248-.484.512-.6.632l43.505,43.9c.325-.284.574-.467.782-.689,10.426-11.125,17.665-23.942,20.6-39.016,2.124-10.92.914-21.584-2.742-32.005-5.09-14.507-13.591-26.542-26.2-35.488A62.522,62.522,0,0,0,87.948,13.682a69.429,69.429,0,0,0-32.934,4.65C39.854,24.6,28.859,35.413,21.381,49.866c-5.726,11.069-8.716,22.828-7.918,35.362A69.046,69.046,0,0,0,22.87,115.6c8.367,14.516,20.17,25.125,36.214,30.41a68.153,68.153,0,0,0,45.975-.665,6.647,6.647,0,0,1,4.885,12.364,61.785,61.785,0,0,1-13.394,3.781c-16.362,2.839-32.316,1.5-47.63-5.12-17.8-7.691-30.706-20.639-39.537-37.747C3.057,106.363-.479,93.313.054,79.493c.782-20.278,8.122-38.12,21.567-53.311,12.5-14.128,28.271-22.4,46.917-25.19a82.116,82.116,0,0,1,41.1,3.985c15.635,5.748,28,15.756,37.478,29.38a85.812,85.812,0,0,1,14.766,36.906,73.72,73.72,0,0,1-4.614,38.117,93.162,93.162,0,0,1-22.691,33.978,42.918,42.918,0,0,1-3.781,3.168c-3.211,2.42-6.78,2.184-9.729-.583-.522-.489-1.018-1.006-1.524-1.511Q96.854,121.81,74.164,99.19C73.891,98.919,73.6,98.661,73.3,98.372Z" transform="translate(168.999 63.64)" fill="#fff"/>
    <path id="Path_60" data-name="Path 60" d="M168.579,131.266c0,7.192.03,14.383-.01,21.574a6.936,6.936,0,0,1-9.615,6.61,6.611,6.611,0,0,1-4.291-6.253c-.075-2.18-.021-4.364-.021-6.547q0-18.408,0-36.816a6.968,6.968,0,1,1,13.924-.143C168.607,116.883,168.579,124.074,168.579,131.266Z" transform="translate(59.505 -8.943)" fill="#fff"/>
    <path id="Path_61" data-name="Path 61" d="M498.39,31.274a6.811,6.811,0,1,1-6.71-6.834A6.808,6.808,0,0,1,498.39,31.274Z" transform="translate(-174.283 46.333)" fill="#fff"/>
  </g>
</svg>
